<svg width="70" height="100" viewBox="0 0 70 100" fill="none" xmlns="http://www.w3.org/2000/svg">
<path fill-rule="evenodd" clip-rule="evenodd" d="M45.5602 8.372L46.4418 6.73746L47.3234 5.12644L49.2878 1.5046C49.5321 1.05775 49.4315 0.458019 49.0674 0.16404C48.708 -0.135815 48.2145 -0.0123355 47.9797 0.434498L44.9804 5.94371L44.0797 7.60177C41.2289 6.24358 38.0523 5.4851 34.6984 5.4851C31.3493 5.4851 28.1679 6.24358 25.3171 7.60177L24.4211 5.94371L23.5348 4.31506L21.4266 0.434498C21.1822 -0.0123355 20.6935 -0.12994 20.3294 0.16404C19.9701 0.458019 19.8694 1.05775 20.109 1.5046L22.0734 5.12644L22.955 6.73746L23.8414 8.372C17.148 12.1996 12.6203 19.4492 12.6203 27.7454H56.7765C56.7765 19.4492 52.2488 12.1996 45.5602 8.372ZM22.8687 17.0973C22.8687 18.7025 23.9276 20.0019 25.2356 20.0019C26.5436 20.0019 27.6025 18.7025 27.6025 17.0973C27.6025 15.4922 26.5436 14.1987 25.2356 14.1987C23.9276 14.1987 22.8687 15.4922 22.8687 17.0973ZM41.7942 17.0973C41.7942 18.7025 42.8531 20.0019 44.1611 20.0019C45.4691 20.0019 46.528 18.7025 46.528 17.0973C46.528 15.4922 45.4691 14.1987 44.1611 14.1987C42.8531 14.1987 41.7942 15.4922 41.7942 17.0973ZM12.6203 31.6141H12.9605H56.7765V74.1944C56.7765 77.5751 54.5438 80.3268 51.784 80.3268H48.1762C48.3008 80.8383 48.3726 81.3734 48.3726 81.9378V94.1968C48.3726 97.4012 46.2501 100 43.6341 100C41.0228 100 38.9051 97.4012 38.9051 94.1968V81.9378C38.9051 81.3734 38.9722 80.8383 39.092 80.3268H30.3048C30.4246 80.8383 30.4965 81.3734 30.4965 81.9378V94.1968C30.4965 97.4012 28.3739 100 25.7627 100C23.1515 100 21.0289 97.4012 21.0289 94.1968V81.9378C21.0289 81.3734 21.096 80.8383 21.2206 80.3268H17.6176C14.8578 80.3268 12.6203 77.5751 12.6203 74.1944V31.6141ZM4.73376 31.6141C2.11774 31.6141 0 34.2129 0 37.4173V62.2587C0 65.4631 2.11774 68.0619 4.73376 68.0619C7.345 68.0619 9.46273 65.4631 9.46273 62.2587V37.4173C9.46273 34.2129 7.345 31.6141 4.73376 31.6141ZM59.9338 37.4173C59.9338 34.2129 62.0515 31.6141 64.6676 31.6141C67.2788 31.6141 69.3965 34.2129 69.3965 37.4173V62.2587C69.3965 65.4631 67.2788 68.0619 64.6676 68.0619C62.0515 68.0619 59.9338 65.4631 59.9338 62.2587V37.4173Z" fill="white"/>
</svg>
