<svg width="86" height="100" viewBox="0 0 86 100" fill="none" xmlns="http://www.w3.org/2000/svg">
<path fill-rule="evenodd" clip-rule="evenodd" d="M61.4534 0C62.3477 6.07393 59.8754 12.0244 56.614 16.2344C53.1247 20.7501 47.1106 24.2428 41.2834 24.0605C40.2197 18.2453 42.9433 12.2537 46.2572 8.22596C49.8926 3.78077 56.1231 0.370433 61.4534 0ZM78.9583 85.4936C81.9625 80.8896 83.0846 78.5671 85.4167 73.3692C68.4554 66.919 65.7376 42.8056 82.5235 33.5506C77.4036 27.1298 70.2088 23.4078 63.4172 23.4078C58.5237 23.4078 55.1708 24.6849 52.1226 25.8458C49.5825 26.8133 47.254 27.7001 44.422 27.7001C41.3616 27.7001 38.6515 26.7284 35.8137 25.7109C32.6954 24.5929 29.4231 23.4196 25.3625 23.4196C17.741 23.4196 9.62856 28.0765 4.48524 36.0378C-2.74465 47.2508 -1.51142 68.3302 10.213 86.2874C14.4037 92.7141 20.0029 99.9346 27.3263 99.9993C30.365 100.029 32.3871 99.1225 34.5753 98.141C37.0799 97.0177 39.8022 95.7967 44.5155 95.7716C49.2567 95.7432 51.936 96.979 54.4073 98.1189C56.5393 99.1023 58.5166 100.014 61.5294 99.9816C68.8587 99.9228 74.7676 91.9203 78.9583 85.4936Z" fill="black"/>
</svg>
