<svg width="45" height="46" viewBox="0 0 45 46" fill="none" xmlns="http://www.w3.org/2000/svg">
<path fill-rule="evenodd" clip-rule="evenodd" d="M22.5 46C10.0736 46 0 35.7025 0 23C0 10.2975 10.0736 0 22.5 0C34.9264 0 45 10.2975 45 23C45 35.7025 34.9264 46 22.5 46ZM26.0211 23L20.4598 28.6564C20.1801 28.9409 20.1801 29.4021 20.4598 29.6866C20.7394 29.9711 21.1928 29.9711 21.4725 29.6866L27.5402 23.5151C27.8199 23.2306 27.8199 22.7694 27.5402 22.4849L21.4725 16.3134C21.1928 16.0289 20.7394 16.0289 20.4598 16.3134C20.1801 16.5979 20.1801 17.0591 20.4598 17.3436L26.0211 23Z" fill="white"/>
</svg>
