<svg width="45" height="46" viewBox="0 0 45 46" fill="none" xmlns="http://www.w3.org/2000/svg">
<path fill-rule="evenodd" clip-rule="evenodd" d="M22.5 46C34.9264 46 45 35.7025 45 23C45 10.2975 34.9264 0 22.5 0C10.0736 0 0 10.2975 0 23C0 35.7025 10.0736 46 22.5 46ZM18.9789 23L24.5402 28.6564C24.8199 28.9409 24.8199 29.4021 24.5402 29.6866C24.2606 29.9711 23.8072 29.9711 23.5275 29.6866L17.4598 23.5151C17.1801 23.2306 17.1801 22.7694 17.4598 22.4849L23.5275 16.3134C23.8072 16.0289 24.2606 16.0289 24.5402 16.3134C24.8199 16.5979 24.8199 17.0591 24.5402 17.3436L18.9789 23Z" fill="white"/>
</svg>
